<svg xmlns="http://www.w3.org/2000/svg" width="35.999" height="63.984" viewBox="0 0 35.999 63.984">
  <g id="Forma_1" data-name="Forma 1" transform="translate(-331.011 -990.015)" fill="none">
    <path d="M367.01,1010.737l-1.413,11.294H354.737V1054H338.658v-31.967h-7.647v-11.294h7.65v-7.312c0-5.227,3.008-13.41,16.231-13.41l11.917.041v10.965H358.16c-1.413,0-3.418.582-3.418,3.079v6.639l12.268,0Z" stroke="none"/>
    <path d="M 354.8860473632813 991.8853759765625 C 349.5753173828125 991.8863525390625 345.648193359375 993.272216796875 343.2140197753906 996.00439453125 C 340.8795776367188 998.6246337890625 340.5310363769531 1001.77880859375 340.5310363769531 1003.425659179688 L 340.5310363769531 1010.7373046875 L 340.5310363769531 1012.607299804688 L 338.6610412597656 1012.607299804688 L 332.8807983398438 1012.607299804688 L 332.8807983398438 1020.161804199219 L 338.6579895019531 1020.161804199219 L 340.5279846191406 1020.161804199219 L 340.5279846191406 1022.031799316406 L 340.5279846191406 1052.129150390625 L 352.8665466308594 1052.129150390625 L 352.8665466308594 1022.031799316406 L 352.8665466308594 1020.161804199219 L 354.7365417480469 1020.161804199219 L 363.9463806152344 1020.161804199219 L 364.8911743164063 1012.607666015625 L 354.7423706054688 1012.609619140625 L 352.8720397949219 1012.609985351563 L 352.8720397949219 1010.739624023438 L 352.8720397949219 1004.100952148438 C 352.8720397949219 1001.140991210938 354.9971313476563 999.15234375 358.1600952148438 999.15234375 L 364.9382019042969 999.15234375 L 364.9382019042969 991.9202880859375 L 354.8860473632813 991.8853759765625 M 354.8916931152344 990.015380859375 L 366.8081970214844 990.0567626953125 L 366.8081970214844 1001.022338867188 C 366.8081970214844 1001.022338867188 359.5638122558594 1001.022338867188 358.1600952148438 1001.022338867188 C 356.7474670410156 1001.022338867188 354.7420349121094 1001.604370117188 354.7420349121094 1004.100952148438 L 354.7420349121094 1010.739624023438 L 367.0097045898438 1010.7373046875 L 365.5970764160156 1022.031799316406 L 354.7365417480469 1022.031799316406 C 354.7365417480469 1036.360717773438 354.7365417480469 1053.999145507813 354.7365417480469 1053.999145507813 L 338.6579895019531 1053.999145507813 C 338.6579895019531 1053.999145507813 338.6579895019531 1036.53662109375 338.6579895019531 1022.031799316406 L 331.0108032226563 1022.031799316406 L 331.0108032226563 1010.7373046875 L 338.6610412597656 1010.7373046875 L 338.6610412597656 1003.425659179688 C 338.6610412597656 998.1988525390625 341.6688232421875 990.015380859375 354.8916931152344 990.015380859375 Z" stroke="none" fill="#8498c3"/>
  </g>
</svg>
