<svg xmlns="http://www.w3.org/2000/svg" width="54" height="54" viewBox="0 0 54 54">
  <g id="Forma_1" data-name="Forma 1" transform="translate(-144 -997)" fill="none">
    <path d="M171,1018.6v10.8h15.277A16.2,16.2,0,1,1,171,1007.8a15.96,15.96,0,0,1,10.492,3.91l7.1-8.143A26.757,26.757,0,0,0,171,997a27,27,0,1,0,27,27v-5.4Z" stroke="none"/>
    <path d="M 170.9998168945313 998.999755859375 C 157.2147064208984 998.999755859375 145.9996948242188 1010.214721679688 145.9996948242188 1023.999694824219 C 145.9996948242188 1037.784790039063 157.2147064208984 1048.999877929688 170.9998168945313 1048.999877929688 C 184.7848663330078 1048.999877929688 195.9998168945313 1037.784790039063 195.9998168945313 1023.999694824219 L 195.9998168945313 1020.599853515625 L 172.9998168945313 1020.599853515625 L 172.9998168945313 1027.399658203125 L 186.2764282226563 1027.399658203125 L 189.1082000732422 1027.399658203125 L 188.1613159179688 1030.068359375 C 185.5867614746094 1037.324584960938 178.6900939941406 1042.199829101563 170.9998168945313 1042.199829101563 C 160.9643707275391 1042.199829101563 152.7999267578125 1034.035278320313 152.7999267578125 1023.999694824219 C 152.7999267578125 1013.964233398438 160.9643707275391 1005.7998046875 170.9998168945313 1005.7998046875 C 174.6790924072266 1005.7998046875 178.2421417236328 1006.915283203125 181.2238616943359 1008.972900390625 L 185.7120361328125 1003.821899414063 C 181.4765777587891 1000.699951171875 176.3240661621094 998.999755859375 170.9998168945313 998.999755859375 M 170.9998168945313 996.999755859375 C 177.4850921630859 996.999755859375 183.7275848388672 999.33251953125 188.5874786376953 1003.566284179688 L 181.4920959472656 1011.70947265625 C 178.5977020263672 1009.187744140625 174.87158203125 1007.7998046875 170.9998168945313 1007.7998046875 C 162.0683135986328 1007.7998046875 154.7999267578125 1015.068115234375 154.7999267578125 1023.999694824219 C 154.7999267578125 1032.931396484375 162.0683135986328 1040.199829101563 170.9998168945313 1040.199829101563 C 178.0414276123047 1040.199829101563 184.0462036132813 1035.685424804688 186.2764282226563 1029.399658203125 L 170.9998168945313 1029.399658203125 L 170.9998168945313 1018.599853515625 L 197.9998168945313 1018.599853515625 L 197.9998168945313 1023.999694824219 C 197.9998168945313 1038.8876953125 185.8874816894531 1050.999877929688 170.9998168945313 1050.999877929688 C 156.1119842529297 1050.999877929688 143.9996948242188 1038.8876953125 143.9996948242188 1023.999694824219 C 143.9996948242188 1009.11181640625 156.1119842529297 996.999755859375 170.9998168945313 996.999755859375 Z" stroke="none" fill="#aaa448"/>
  </g>
</svg>
