<svg xmlns="http://www.w3.org/2000/svg" width="60.047" height="48.902" viewBox="0 0 60.047 48.902">
  <g id="twitter1" transform="translate(-0.006 -0.098)">
    <path id="Shape_1" data-name="Shape 1" d="M59.71,5.6A1.34,1.34,0,0,0,58.487,5.3l-2.038.713A13.957,13.957,0,0,0,59,1.63a1.051,1.051,0,0,0-.2-1.223A1.085,1.085,0,0,0,57.569.2a74.681,74.681,0,0,1-7.338,2.852c0,.1-.1,0-.2,0C48.4,2.139,44.422.1,41.568.1A13.469,13.469,0,0,0,28.522,13.752v.407C17.922,12.122,12.113,9.066,5.794,2.445L4.775,1.426,4.163,2.648C.7,9.27,3.144,15.281,7.119,19.355A8.325,8.325,0,0,1,2.94,17.522a1.221,1.221,0,0,0-1.427-.1A1.254,1.254,0,0,0,1,18.744a19.993,19.993,0,0,0,8.867,11,8.176,8.176,0,0,1-4.892-1.223,1.437,1.437,0,0,0-1.427.1,1.114,1.114,0,0,0-.408,1.324c1.835,5.2,5.4,7.946,11.109,8.659-2.956,1.732-6.829,3.158-12.842,3.26a1.451,1.451,0,0,0-1.325.917,1.416,1.416,0,0,0,.408,1.528C4.163,47.268,12.317,49,22.407,49c17.938,0,32.614-15.994,32.614-35.655v-.306a10.092,10.092,0,0,0,4.994-6.214A1.339,1.339,0,0,0,59.71,5.6Zm-6.115,5.807-.612.2v1.732c0,18.541-13.759,33.618-30.576,33.618-9.275,0-15.492-1.528-18.855-3.158,7.033-.509,11.109-2.751,14.269-5.2l2.548-1.834H17.311c-5.809,0-9.377-1.63-11.415-5.5a16.05,16.05,0,0,0,5.911.509,19.645,19.645,0,0,1,2.446-.1l.306-2.037a18.409,18.409,0,0,1-10.7-9.27,15.372,15.372,0,0,0,6.319,1.121h3.16l-2.548-1.834c-2.14-1.528-8.459-6.927-5.4-14.67,6.523,6.418,12.74,9.372,23.951,11.41l1.223.2V13.752A11.427,11.427,0,0,1,41.568,2.139c2.344-.1,6.217,2.037,7.338,2.649a2.338,2.338,0,0,0,1.835.2c1.529-.509,3.363-1.223,5.4-2.037a16.284,16.284,0,0,1-3.771,4.279,1.226,1.226,0,0,0-.306,1.426,1.011,1.011,0,0,0,1.325.509l3.975-1.324A7.2,7.2,0,0,1,53.594,11.409Z" fill="#00aced"/>
  </g>
</svg>
