<svg xmlns="http://www.w3.org/2000/svg" xmlns:xlink="http://www.w3.org/1999/xlink" width="109" height="72" viewBox="0 0 109 72">
  <defs>
    <linearGradient id="linear-gradient" x1="0.302" y1="1" x2="0.698" gradientUnits="objectBoundingBox">
      <stop offset="0" stop-color="#10e800"/>
      <stop offset="1" stop-color="#004b07"/>
    </linearGradient>
  </defs>
  <path id="Forma_1" data-name="Forma 1" d="M207.891,452.4h-4.739a6.953,6.953,0,0,0-2.37.442V445.2a7.163,7.163,0,0,0-7.109-7.2h-4.739a7.163,7.163,0,0,0-7.109,7.2V462H139.174V445.2a7.164,7.164,0,0,0-7.109-7.2h-4.739a7.163,7.163,0,0,0-7.109,7.2v7.642a6.951,6.951,0,0,0-2.369-.442h-4.739A7.164,7.164,0,0,0,106,459.6v28.8a7.163,7.163,0,0,0,7.109,7.2h4.739a6.953,6.953,0,0,0,2.369-.441V502.8a7.163,7.163,0,0,0,7.109,7.2h4.739a7.163,7.163,0,0,0,7.109-7.2V486h42.652v16.8a7.163,7.163,0,0,0,7.109,7.2h4.739a7.163,7.163,0,0,0,7.109-7.2v-7.642a6.955,6.955,0,0,0,2.37.441h4.739A7.163,7.163,0,0,0,215,488.4V459.6A7.164,7.164,0,0,0,207.891,452.4Zm-87.674,36a2.389,2.389,0,0,1-2.369,2.4h-4.739a2.389,2.389,0,0,1-2.369-2.4V459.6a2.389,2.389,0,0,1,2.369-2.4h4.739a2.389,2.389,0,0,1,2.369,2.4Zm14.217,14.4a2.389,2.389,0,0,1-2.37,2.4h-4.739a2.389,2.389,0,0,1-2.369-2.4V445.2a2.389,2.389,0,0,1,2.369-2.4h4.739a2.389,2.389,0,0,1,2.37,2.4Zm47.391-21.6H139.174V466.8h42.652Zm14.217-21.6v43.2a2.389,2.389,0,0,1-2.37,2.4h-4.739a2.389,2.389,0,0,1-2.37-2.4V445.2a2.389,2.389,0,0,1,2.37-2.4h4.739a2.389,2.389,0,0,1,2.37,2.4Zm14.217,28.8a2.389,2.389,0,0,1-2.37,2.4h-4.739a2.389,2.389,0,0,1-2.37-2.4V459.6a2.389,2.389,0,0,1,2.37-2.4h4.739a2.389,2.389,0,0,1,2.37,2.4Z" transform="translate(-106 -438)" fill="url(#linear-gradient)"/>
</svg>
